# xmcd
#
# Track frame offsets: 
#        150
#        11245
#        22315
#        32542
#        43090
#        53505
#        67542
#        80460
#        90925
#        100492
#        110777
#        120270
#        131227
#        141192
#        155767
#        168295
#        182675
#        193082
#        206930
#        221465
#        233650
#        245410
#        257937
#        271577
#        282947
#        294112
#        304527
#        315452
#        327590
#        339302
#
# Disc length: 4679 seconds
#
# Revision: 0
# Processed by: cddbd v1.5.2PL0 Copyright (c) Steve Scherf et al.
# Submitted via: ExactAudioCopy v0.99pb4
#
DISCID=ab12451e
DTITLE=Hal Lone Pine and Betty Cody - On the Trail of the Lonesome Pine
DYEAR=2006
DGENRE=Country
TTITLE0=On The Trail Of The Lonesome Pine
TTITLE1=I'm Talkin', Start Walkin'
TTITLE2=Lipstick On Your Collar
TTITLE3=From One O'clock To Midnight
TTITLE4=Pretty As A Queen
TTITLE5=Little Jeannie
TTITLE6=Prince Edward Island Is Heaven To Me
TTITLE7=From Paree To Tennessee
TTITLE8=Honey, Honey Mine
TTITLE9=Come Back To This Heart Of Mine
TTITLE10=In Sunny Tennessee
TTITLE11=She Took
TTITLE12=Don't Stop-I Like It!
TTITLE13=Fuzzy-Wuzzy Teddy Bear
TTITLE14=Pale Moon
TTITLE15=The Waltz Of The Bride
TTITLE16=Yes I Do, No I Don't (The Question Song)
TTITLE17=When It's Applebossomtime In Annapolis Valley
TTITLE18=O Lord Please Tell Me, Do
TTITLE19=I'll Be Waiting Patiently
TTITLE20=One Poor Lonely Heart
TTITLE21=O Mama Come Home
TTITLE22=Tom-Tom Yodel
TTITLE23=Jealous Love
TTITLE24=No Heart At All
TTITLE25=Add A Name
TTITLE26=Gonna Build A Fence Around You
TTITLE27=Tell It Right
TTITLE28=I Heard The Bluebells Sing
TTITLE29=It's Good-Bye And So Long To You
EXTD=
EXTT0=
EXTT1=
EXTT2=
EXTT3=
EXTT4=
EXTT5=
EXTT6=
EXTT7=
EXTT8=
EXTT9=
EXTT10=
EXTT11=
EXTT12=
EXTT13=
EXTT14=
EXTT15=
EXTT16=
EXTT17=
EXTT18=
EXTT19=
EXTT20=
EXTT21=
EXTT22=
EXTT23=
EXTT24=
EXTT25=
EXTT26=
EXTT27=
EXTT28=
EXTT29=
PLAYORDER=
